<?xml version="1.0" standalone="no"?>
<!DOCTYPE svg PUBLIC "-//W3C//DTD SVG 20010904//EN"
 "http://www.w3.org/TR/2001/REC-SVG-20010904/DTD/svg10.dtd">
<svg version="1.0" xmlns="http://www.w3.org/2000/svg"
 width="750.000000pt" height="750.000000pt" viewBox="0 0 750.000000 750.000000"
 preserveAspectRatio="xMidYMid meet">
<metadata>
Created by potrace 1.14, written by Peter Selinger 2001-2017
</metadata>
<g transform="translate(0.000000,750.000000) scale(0.100000,-0.100000)"
fill="#000000" stroke="none">
<path d="M4000 6320 l0 -150 -300 0 -300 0 0 -150 0 -150 -450 0 -450 0 0
-150 0 -150 -300 0 -300 0 0 -150 0 -150 -300 0 -300 0 0 -150 0 -150 -37 -1
c-21 0 -88 -1 -149 -1 -111 0 -111 0 -111 -24 0 -15 4 -21 11 -17 6 4 5 0 -2
-9 -17 -21 -12 -94 6 -90 8 1 11 -2 7 -8 -3 -6 -11 -8 -16 -5 -14 9 -11 -79 4
-94 10 -11 9 -12 -1 -6 -10 5 -13 1 -12 -11 1 -11 2 -157 1 -326 l-1 -308
-150 0 -150 0 0 -750 0 -750 150 0 150 0 0 -300 0 -300 150 0 150 0 0 -150 0
-150 150 0 150 0 0 -150 0 -150 150 0 150 0 0 -150 0 -150 300 0 300 0 0 -150
0 -150 1200 0 1200 0 0 150 0 150 150 0 150 0 0 150 0 150 150 0 150 0 0 150
0 150 150 0 150 0 0 150 0 150 150 0 150 0 0 450 0 450 150 0 150 0 0 300 0
300 150 0 150 0 0 1200 0 1200 -150 0 -150 0 0 150 0 150 -150 0 -150 0 0 150
0 150 -1050 0 -1050 0 0 -150z m-2959 -1393 c-10 -9 -11 -8 -5 6 3 10 9 15 12
12 3 -3 0 -11 -7 -18z m113 12 c3 -2 -10 -5 -29 -5 -18 0 -32 3 -30 7 5 7 52
6 59 -2z m56 2 c0 -6 -4 -12 -8 -15 -5 -3 -9 1 -9 9 0 8 4 15 9 15 4 0 8 -4 8
-9z m77 -8 c0 -9 -4 -10 -14 -2 -7 6 -13 12 -13 14 0 1 6 2 13 2 8 0 14 -6 14
-14z m-61 -33 c0 -12 -4 -16 -9 -11 -5 5 -6 14 -3 20 10 15 12 14 12 -9z m-26
6 c0 -2 -8 -10 -17 -17 -16 -13 -17 -12 -4 4 13 16 21 21 21 13z m-60 -20 c0
-2 -8 -10 -17 -17 -16 -13 -17 -12 -4 4 13 16 21 21 21 13z m-114 -32 c1 -9 0
-13 -4 -10 -3 4 -7 14 -8 22 -1 9 0 13 4 10 3 -4 7 -14 8 -22z m57 -4 c10 -12
9 -12 -4 -2 -9 6 -18 9 -21 6 -3 -3 -9 -1 -12 4 -9 15 22 8 37 -8z m104 5 c0
-8 -4 -12 -9 -9 -5 3 -6 10 -3 15 9 13 12 11 12 -6z m43 9 c0 -8 -19 -13 -24
-6 -3 5 1 9 9 9 8 0 15 -2 15 -3z m64 -22 c2 -4 -4 -8 -14 -8 -10 0 -16 4 -14
8 3 4 9 8 14 8 5 0 11 -4 14 -8z m-45 -29 c2 -1 -5 -1 -16 0 -11 0 -20 7 -20
14 0 10 4 10 16 1 9 -7 18 -13 20 -15z m-159 3 c0 -2 -8 -10 -17 -17 -16 -13
-17 -12 -4 4 13 16 21 21 21 13z m-64 -31 c-1 -8 -5 -17 -8 -21 -5 -4 -4 16 1
34 3 9 9 -1 7 -13z m160 0 c-1 -8 -5 -17 -8 -21 -5 -4 -4 16 1 34 3 9 9 -1 7
-13z m-69 -7 c11 -19 13 -39 2 -32 -5 3 -7 9 -4 14 3 5 -3 13 -12 19 -10 6
-13 11 -6 11 6 0 15 -6 20 -12z m164 -25 c13 -16 12 -17 -3 -4 -10 7 -18 15
-18 17 0 8 8 3 21 -13z m-235 -39 c1 -9 -1 -13 -4 -9 -4 4 -7 10 -7 13 0 4 -4
14 -9 22 -7 12 -6 13 4 3 8 -7 15 -20 16 -29z m201 18 c0 -10 -6 -19 -13 -19
-9 0 -9 5 -1 19 7 10 13 18 14 18 1 0 1 -8 0 -18z m-77 -17 c-6 -8 -8 -20 -4
-27 5 -10 4 -10 -6 -1 -11 10 -11 15 0 28 7 8 15 15 17 15 3 0 0 -7 -7 -15z
m-36 -13 c2 -4 -4 -8 -14 -8 -10 0 -16 4 -14 8 3 4 9 8 14 8 5 0 11 -4 14 -8z"/>
</g>
</svg>
